/* XPM */
static char *_34a6014438d4b52e7c315834cb23aedM8M9a9PIG3Fcjf3k[] = {
/* columns rows colors chars-per-pixel */
"46 46 4 1 ",
"  c None",
". c #78A158",
"X c #A4C263",
"o c #C0D470",
/* pixels */

"                                              ",
"     ................................         ",
"    ......XXXXXXXX...XXXXX..XXXXXXXX......    ",
"   ..XXXXXXXXXXXXXXXXXXXXXXXXXXXXXXXXXXX...   ",
"  ..XXXXXXXXXXXoXXXXXXXoXXXXXooooXXXXXXXXX..  ",
"  .XXXXXXoXooooooooXooXooXoooooooXoXXXXXXX..  ",
"  ..XXXXooooXooooXooooooooooXooooooooXoXXX..  ",
" ...XXXoooooooooooooooooXoooooooooooooooXXX.. ",
" ..XXXoooooooooooooooooooooooooooooooooooXX.. ",
" ..XXXXooooooooooooooooooooooooooXoooooooXXX. ",
" .XXXoooooooooooooooooooooooooooooooooXooXXX. ",
" .XXXoooooooXoooooooooooooooooooooooooooooX.. ",
" .XXXoXooooooooooooooooooooooooooooooooooXX.. ",
" .XXooooooooooooooooooooooooooooooooooooooXX. ",
" .XXooooooooooooooooooooooooooooooooooooooXX. ",
" .XXXoooooooooooooooooooooooooooooooooooooXX. ",
" .XXooXoooooooooooooooooooooooooooooooooooXX. ",
" .XXooooooooooooooooooooooooooooooooXooooXXX. ",
" ..XXoooooXoooooooooooooooooooooooooooooXXX.. ",
" ..XXXoooooooooooooooooooooooooooooooooooXX.. ",
" ..XXoooooooooooooooooooooooooooooooooooXXX.. ",
" .XXXooXooooooooooooooooooooooooooooooooXXXX. ",
" .XXoooooooooooooooooooooooooooooooooooooXXX. ",
" .XXooooooooooooooooooooooooooooooooooXooXXX. ",
" .XXXooooooooooooooooooooooooooooooooooooXXX. ",
" ..XXooooooooooooooooooooooooooooooooooooXXX. ",
" ..XXooooooooooooooooooooooooooooooXooooXXXX. ",
" .XXXXooXooooooooooooooooooooooooooooooooXX.. ",
" .XXXoooooooooooooooooooooooooooooooooXoooX.. ",
" .XXooooooooooooooooooooooooooooooooooooooXX. ",
" .XXXoooooooooooooooooooooooooooooooooooooXX. ",
" .XXoooooooooooooooooooooooooooooooooooooXX.. ",
" .XXXooooooooooooooooooooooooooooooooooooXX.. ",
" ..XXXooooooooooooooooooooooooooooooXoooXXXX. ",
" ..XXooooXoooooooooooooooooooooooooooooooXXX. ",
" .XXXXooooooooooooooooooooooooooooooooooXXXX. ",
" .XXXoooooooXooooooooooooooooooooooooooooXX.. ",
" ..XXooooooooooooXoooooooooXoooooooooooooXX.. ",
" ..XXXXoooooooooooooooooooooooooooXooXooXXX.. ",
"  .XXXooooXooooooooooXooooooooooooooooooXX..  ",
"  ..XXXooXooooooooXooooooXooXooooooooooXXX..  ",
"  ..XXXXXXXXoXoooXXXXoooXXXXXXoooXooXXXXXX..  ",
"   ..XXXXXXXXXXXXXXXXXXXXXXXXXXXXXXXXXXXX..   ",
"     ......X..XXXX...XXXXX...XXXXX..XX.....   ",
"       ................................       ",
"                                              "
};
